<?xml version="1.0" encoding="UTF-8" standalone="no"?>
<!-- Created with Inkscape (http://www.inkscape.org/) -->

<svg
   xmlns:dc="http://purl.org/dc/elements/1.1/"
   xmlns:cc="http://creativecommons.org/ns#"
   xmlns:rdf="http://www.w3.org/1999/02/22-rdf-syntax-ns#"
   xmlns:svg="http://www.w3.org/2000/svg"
   xmlns="http://www.w3.org/2000/svg"
   xmlns:sodipodi="http://sodipodi.sourceforge.net/DTD/sodipodi-0.dtd"
   xmlns:inkscape="http://www.inkscape.org/namespaces/inkscape"
   version="1.1"
   id="svg2"
   width="191.03999"
   height="191.12447"
   viewBox="0 0 191.03999 191.12447"
   sodipodi:docname="e18-blindvej.svg"
   inkscape:version="0.92.2 (5c3e80d, 2017-08-06)">
  <metadata
     id="metadata8">
    <rdf:RDF>
      <cc:Work
         rdf:about="">
        <dc:format>image/svg+xml</dc:format>
        <dc:type
           rdf:resource="http://purl.org/dc/dcmitype/StillImage" />
        <dc:title />
      </cc:Work>
    </rdf:RDF>
  </metadata>
  <defs
     id="defs6" />
  <sodipodi:namedview
     pagecolor="#ffffff"
     bordercolor="#666666"
     borderopacity="1"
     objecttolerance="10"
     gridtolerance="10"
     guidetolerance="10"
     inkscape:pageopacity="0"
     inkscape:pageshadow="2"
     inkscape:window-width="1920"
     inkscape:window-height="1018"
     id="namedview4"
     showgrid="false"
     inkscape:zoom="2.63"
     inkscape:cx="1.5808365"
     inkscape:cy="81.135306"
     inkscape:window-x="0"
     inkscape:window-y="28"
     inkscape:window-maximized="1"
     inkscape:current-layer="svg2" />
  <g
     id="g817"
     transform="translate(-0.48,-0.48)">
    <path
       style="fill:#0867b1;stroke-width:0.31999999"
       d="M 8.2701386,191.23523 C 5.015641,190.06933 2.7427077,188.02414 1.3123562,184.9746 L 0.48,183.2 V 96 8.8 L 1.3344583,6.9771206 C 2.4244543,4.6517514 4.6517514,2.4244543 6.9771206,1.3344583 L 8.8,0.48 h 87.20672 87.20672 l 2.13644,1.0517592 c 2.36306,1.1633301 4.22185,3.0286542 5.41994,5.4390078 L 191.52,8.48 V 96 183.52 l -0.71575,1.53662 c -0.91069,1.95513 -3.61836,4.65874 -5.68425,5.67574 l -1.6,0.78764 -87.04,0.0672 C 25.410832,191.642 9.225344,191.5772 8.2701386,191.23527 Z M 185.54432,190.10245 c 2.22486,-1.20627 3.78648,-2.82548 4.91757,-5.09889 L 191.2,183.52 V 96 8.48 l -0.89093,-1.6909286 c -1.18862,-2.2559348 -3.0997,-4.1093388 -5.30172,-5.1417237 L 183.2,0.8 H 96 8.8 L 7.138864,1.5512911 C 4.8485184,2.5871581 2.2183042,5.4056122 1.3324561,7.7732534 L 0.64,9.624008 v 86.384565 c 0,84.907627 0.0106816,86.412677 0.6247653,88.028807 1.25934,3.31432 3.1168955,5.22547 6.3897877,6.57415 L 9.44,191.34727 96.48,191.27364 183.52,191.2 Z M 9.76,185.7625 C 8.2314394,185.22581 6.4803686,183.33372 6.2347254,181.95333 6.137505,181.407 6.0989197,142.35678 6.1489805,95.175078 L 6.24,9.3901552 7.1019373,8.2601104 C 7.5760026,7.6385856 8.5120026,6.8578006 9.1819373,6.5250326 10.366042,5.9368675 12.76829,5.917704 95.349987,5.8376394 189.6128,5.7462496 182.62067,5.5889942 184.6014,7.8449318 c 0.54415,0.6197431 1.09943,1.5201645 1.23398,2.000937 C 185.96992,10.326641 186.08,49.24 186.08,96.32 c 0,80.23751 -0.0344,85.66276 -0.54851,86.60188 -0.74432,1.35956 -2.26424,2.58489 -3.70143,2.98404 -0.80535,0.22367 -28.60312,0.32655 -85.99006,0.31825 -71.969074,-0.0104 -84.993674,-0.0803 -86.08,-0.46167 z M 107.2,120.16 V 74.88 h 15.36 15.36 V 51.84 28.8 H 96 54.08 V 51.84 74.88 H 69.44 84.8 v 45.28 45.28 H 96 107.2 Z M 58.133334,70.826666 C 58.016,70.709334 57.92,62.151037 57.92,51.80823 c 0,-17.639132 0.03472,-18.814406 0.56,-18.955136 0.462147,-0.123817 73.9311,-0.05798 75.2,0.06739 0.31508,0.03114 0.4,4.08193 0.4,19.07952 V 71.04 H 96.213334 c -20.826668,0 -37.962668,-0.096 -38.08,-0.213334 z"
       id="path821"
       inkscape:connector-curvature="0" />
    <path
       style="fill:#dd0123;stroke-width:0.31999999"
       d="M 58.133334,70.826666 C 58.016,70.709334 57.92,62.151037 57.92,51.80823 c 0,-17.639132 0.03472,-18.814406 0.56,-18.955136 0.462147,-0.123817 73.9311,-0.05798 75.2,0.06739 0.31508,0.03114 0.4,4.08193 0.4,19.07952 V 71.04 H 96.213334 c -20.826668,0 -37.962668,-0.096 -38.08,-0.213334 z"
       id="path819"
       inkscape:connector-curvature="0" />
  </g>
</svg>
