<?xml version="1.0" encoding="UTF-8" standalone="no"?>
<!-- Created with Inkscape (http://www.inkscape.org/) -->

<svg
   xmlns:dc="http://purl.org/dc/elements/1.1/"
   xmlns:cc="http://creativecommons.org/ns#"
   xmlns:rdf="http://www.w3.org/1999/02/22-rdf-syntax-ns#"
   xmlns:svg="http://www.w3.org/2000/svg"
   xmlns="http://www.w3.org/2000/svg"
   xmlns:sodipodi="http://sodipodi.sourceforge.net/DTD/sodipodi-0.dtd"
   xmlns:inkscape="http://www.inkscape.org/namespaces/inkscape"
   version="1.1"
   id="svg2"
   width="144.32001"
   height="192"
   viewBox="0 0 144.32001 192"
   sodipodi:docname="xx-paspåmig.svg"
   inkscape:version="0.92.2 (5c3e80d, 2017-08-06)">
  <metadata
     id="metadata8">
    <rdf:RDF>
      <cc:Work
         rdf:about="">
        <dc:format>image/svg+xml</dc:format>
        <dc:type
           rdf:resource="http://purl.org/dc/dcmitype/StillImage" />
        <dc:title />
      </cc:Work>
    </rdf:RDF>
  </metadata>
  <defs
     id="defs6" />
  <sodipodi:namedview
     pagecolor="#ffffff"
     bordercolor="#666666"
     borderopacity="1"
     objecttolerance="10"
     gridtolerance="10"
     guidetolerance="10"
     inkscape:pageopacity="0"
     inkscape:pageshadow="2"
     inkscape:window-width="1920"
     inkscape:window-height="1018"
     id="namedview4"
     showgrid="false"
     inkscape:zoom="4.06"
     inkscape:cx="33.540483"
     inkscape:cy="117.02167"
     inkscape:window-x="0"
     inkscape:window-y="28"
     inkscape:window-maximized="1"
     inkscape:current-layer="svg2" />
  <g
     id="g12">
    <path
       style="fill:#f1c90d;stroke-width:0.32000002"
       d="m 10.560001,129.92 v -3.84 h 4.16 4.16 v 3.84 3.84 h -4.16 -4.16 z m 26.560002,0 v -3.84 h 4.106665 c 2.258669,0 4.16667,0.0594 4.240001,0.13209 0.07333,0.0726 0.08862,1.80065 0.03396,3.84 L 45.401258,133.76 H 41.26063 37.120003 Z m 27.981806,3.42797 c -0.09101,-0.23718 -0.124156,-1.9335 -0.07364,-3.7696 l 0.09184,-3.33837 h 4.16 4.16 v 3.68 3.68 l -4.086355,0.0896 c -3.195066,0.0701 -4.122452,-0.004 -4.251841,-0.34164 z M 95.293466,131.28 c -0.05456,-1.44792 0.0875,-3.07927 0.34136,-3.92 l 0.434819,-1.44 3.805181,0.0988 3.805184,0.0988 v 3.82119 3.82118 h -4.146544 -4.146538 z m 22.466544,-1.36 v -3.85858 l 4.24,0.0893 4.24,0.0893 v 3.68 3.68 l -4.24,0.0893 -4.24,0.0893 z M 17.280001,99.52 v -3.84 h 4.16 4.160001 v 3.84 3.84 h -4.160001 -4.16 z m 26.69812,3.41837 c -0.08899,-0.2319 -0.12047,-1.9239 -0.06996,-3.760002 l 0.09184,-3.338368 4.08,-0.08956 c 2.244,-0.04926 4.087383,-0.04926 4.096404,0 0.214128,1.169044 0.314461,5.14169 0.156467,6.19527 L 52.120788,103.36 h -3.990436 c -3.006346,0 -4.030336,-0.10398 -4.152231,-0.42163 z m 71.291649,-3.32901 0.0902,-3.76936 h 4.16 4.16 v 3.68 3.68 l -4.25024,0.0894 -4.25024,0.0894 z"
       id="path18"
       inkscape:connector-curvature="0"
       sodipodi:nodetypes="cccccccccccscccccccccccccccccccccccccccccccccccccccccccccccscccscccccccccc" />
    <path
       style="fill:#de0022;stroke-width:0.32000002"
       d="M 26.995265,66.74927 C 23.87478,66.15329 22.641042,65.727971 19.816079,64.27432 15.052747,61.823232 11.361591,58.067158 9.0117801,53.28 7.0406082,49.264224 6.5820997,47.20639 6.5875937,42.4 c 0.00568,-4.967024 0.471466,-6.989069 2.615141,-11.352651 1.2544783,-2.553568 1.9469693,-3.488779 4.3835503,-5.92 4.119586,-4.110522 7.539121,-5.974408 12.9679,-7.068415 3.155342,-0.635864 7.904048,-0.480376 11.045818,0.361676 2.741056,0.734653 6.775581,2.780794 8.971843,4.550141 14.028936,11.301953 11.887336,33.058129 -4.071405,41.360779 -4.561894,2.373356 -10.714414,3.332726 -15.505176,2.41774 z"
       id="path16"
       inkscape:connector-curvature="0"
       sodipodi:nodetypes="sssssssssss" />
    <path
       style="fill:#0d0d0d;stroke-width:0.32000002"
       d="m 10.924068,174.6131 c -0.261144,-0.31466 -0.238836,-0.75637 0.08485,-1.68 0.24153,-0.68921 0.660134,-1.9731 0.930233,-2.8531 0.270098,-0.88 1.094995,-3.256 1.833105,-5.28 0.738109,-2.024 1.433306,-4.472 1.544882,-5.44 l 0.202865,-1.76 1.44,-0.20139 c 0.792,-0.11076 1.873329,-0.34276 2.402952,-0.51556 1.218026,-0.3974 2.239605,-0.0346 3.597049,1.27734 0.949841,0.91802 1.039543,1.1731 1.034736,2.94238 -0.0059,2.16669 -0.822636,3.9833 -2.274923,5.0599 -0.977441,0.72459 -4.025169,1.50513 -5.905087,1.51233 l -1.305273,0.005 -0.897705,3.28 c -1.012661,3.70002 -1.781482,4.745 -2.687682,3.6531 z m 8.129172,-9.13459 c 2.012118,-0.91398 3.026762,-2.32965 3.026762,-4.22306 0,-1.14878 -0.173327,-1.74877 -0.640001,-2.21545 -1.1327,-1.1327 -3.312504,-0.62356 -4.167131,0.97332 -0.502309,0.93858 -1.837797,5.71509 -1.650324,5.90256 0.355501,0.3555 2.203997,0.11984 3.430694,-0.43737 z m 1.426761,8.43513 c 0,-0.0915 0.329101,-0.7035 0.731336,-1.36 1.15188,-1.88003 1.530042,-2.89318 1.129698,-3.02663 -0.60711,-0.20237 0.04732,-1.45471 0.867797,-1.66063 0.53627,-0.1346 1.055179,-0.72914 1.633676,-1.87181 0.466279,-0.92101 1.526817,-2.68257 2.356752,-3.91457 0.829935,-1.232 1.834398,-2.888 2.232141,-3.68 2.274717,-4.5295 3.795539,-3.00455 3.411776,3.42103 -0.22993,3.84985 -0.04369,5.10235 0.791155,5.32067 0.794563,0.20778 0.780176,1.19258 -0.02048,1.40196 -0.529338,0.13842 -0.640659,0.49249 -0.72,2.29004 -0.0851,1.92793 -0.161027,2.13584 -0.813853,2.22856 -0.789414,0.11211 -0.799246,0.0792 -0.724081,-2.42226 0.05414,-1.80183 0.0853,-1.77406 -1.915919,-1.7077 -2.802036,0.0929 -4.8,0.4297 -4.8,0.80911 0,0.21921 -0.595274,1.28507 -1.32283,2.36858 -0.997544,1.48559 -1.509013,1.97001 -2.079997,1.97001 -0.416444,0 -0.757171,-0.0749 -0.757171,-0.16636 z m 10.635101,-7.00205 c 0.294381,-0.44025 0.283652,-4.72558 -0.01606,-6.41368 l -0.224075,-1.26208 -0.557483,0.85083 c -0.306616,0.46795 -0.557484,0.95393 -0.557484,1.07995 0,0.12602 -0.792,1.40722 -1.76,2.84711 -2.387054,3.55073 -2.35883,3.72512 0.56,3.4601 1.276,-0.11585 2.425795,-0.36886 2.5551,-0.56223 z m 5.444901,4.94009 c -1.336775,-1.69493 -0.778653,-5.19468 0.88,-5.51809 0.389353,-0.0759 0.48,0.32362 0.48,2.11565 0,2.13085 0.03158,2.2199 0.890323,2.5101 1.611843,0.5447 3.608512,-1.57075 4.219389,-4.47042 0.311584,-1.479 -0.784592,-2.50014 -3.012848,-2.8066 -2.894906,-0.39815 -3.496023,-1.63309 -2.148877,-4.41468 0.760777,-1.57085 3.433648,-3.91996 4.808077,-4.22568 2.093031,-0.46556 3.709059,0.79192 3.719219,2.89404 0.0056,1.16254 -0.494249,1.744 -1.499283,1.744 -0.656307,0 -0.736,-0.15221 -0.736,-1.40576 0,-1.81765 -0.632618,-2.09594 -2.282506,-1.00409 -1.351737,0.89453 -2.045504,1.80781 -2.367017,3.11592 -0.187434,0.7626 -0.103997,0.8902 0.698326,1.06794 3.127543,0.69284 4.225843,1.14785 4.788605,1.98382 1.546627,2.29748 -0.401354,7.31204 -3.461517,8.91074 -0.475261,0.24828 -1.627261,0.44346 -2.56,0.43372 -1.472666,-0.0154 -1.790663,-0.13786 -2.415891,-0.93061 z M 53.030576,171.44 c -0.07852,-0.22 0.03839,-0.76 0.259789,-1.2 0.221402,-0.44 0.575402,-1.448 0.786666,-2.24 0.211264,-0.792 1.079526,-3.24344 1.929469,-5.44765 0.887757,-2.30227 1.641827,-4.86038 1.77207,-6.01156 0.276557,-2.44444 0.533344,-2.62079 3.816289,-2.62079 2.871299,0 3.953997,0.45796 4.800976,2.0307 0.531674,0.98726 0.557731,1.3034 0.219642,2.66473 -0.210983,0.84951 -0.44873,1.83257 -0.52833,2.18457 -0.0796,0.352 -0.657235,1.09026 -1.283635,1.64057 -1.133226,0.99557 -2.209552,1.38523 -5.64497,2.04358 l -1.801466,0.34522 -1.006371,2.81339 c -1.00682,2.81463 -1.90825,4.19724 -2.7365,4.19724 -0.242477,0 -0.50511,-0.18 -0.583629,-0.4 z m 8.741623,-9.28 c 0.956394,-0.48228 1.657773,-1.14261 2.124333,-2 1.107431,-2.03511 1.191249,-2.79125 0.418333,-3.77385 -0.928521,-1.18043 -2.598371,-1.19746 -3.673411,-0.0375 -0.687149,0.74144 -2.40145,5.11913 -2.40145,6.13241 0,0.64546 1.97072,0.46632 3.532195,-0.32109 z m 0.947805,8.74873 c 0,-0.1602 0.431776,-1.2042 0.959501,-2.32 0.527725,-1.1158 0.815725,-2.07673 0.64,-2.1354 -0.629513,-0.21016 -0.302163,-0.98739 0.653674,-1.55201 0.535245,-0.31618 1.05728,-0.93632 1.160077,-1.37809 0.102797,-0.44178 0.871862,-2.02723 1.70903,-3.52323 0.837168,-1.496 1.691328,-3.251 1.898138,-3.90001 0.498656,-1.56486 1.518215,-2.81999 2.290727,-2.81999 0.797632,0 1.241609,1.15091 1.273344,3.30083 0.01347,0.91254 0.193468,2.95517 0.4,4.53917 0.364723,2.79726 0.40079,2.88291 1.25551,2.98125 1.161875,0.13369 1.208717,1.18687 0.06555,1.47378 -0.790282,0.19835 -0.811655,0.273 -0.72,2.51469 0.08702,2.12843 0.04408,2.31028 -0.545546,2.31028 -0.479446,0 -0.660694,-0.24083 -0.722493,-0.96 -0.04537,-0.528 -0.165129,-1.59158 -0.266134,-2.36352 l -0.183642,-1.40353 -2.266576,0.21066 c -3.457043,0.3213 -3.591783,0.38802 -4.437581,2.19724 -1.008653,2.15759 -1.793773,3.11915 -2.5468,3.11915 -0.339226,0 -0.616775,-0.13107 -0.616775,-0.29127 z m 9.42402,-7.10457 c 0.191527,-0.17904 0.161923,-0.97217 -0.08,-2.14344 -0.211209,-1.02259 -0.384019,-2.53458 -0.384019,-3.35998 0,-0.82541 -0.108,-1.49039 -0.24,-1.47773 -0.132,0.0126 -0.866349,1.34465 -1.631885,2.96 -0.765539,1.61534 -1.609456,3.34615 -1.875376,3.84625 l -0.483488,0.90926 2.195373,-0.22508 c 1.207456,-0.1238 2.332186,-0.35297 2.499395,-0.50928 z m 10.095982,5.54417 c 0,-0.62177 4.499069,-13.21249 5.926048,-16.58414 0.427133,-1.00923 1.711639,-1.67542 1.888339,-0.97935 0.05238,0.20634 0.259127,0.88815 0.459434,1.51513 0.200307,0.62699 0.456762,2.23505 0.569898,3.57346 0.266256,3.14981 0.544781,3.58705 1.48232,2.32702 0.392678,-0.52775 1.516829,-1.89575 2.498112,-3.04 0.981283,-1.14425 2.174781,-2.67184 2.652215,-3.39465 0.90415,-1.36883 2.117389,-2.15091 2.881718,-1.8576 0.57756,0.22162 0.27266,1.62837 -0.903328,4.16771 -0.479891,1.03625 -1.425578,3.39609 -2.101523,5.24409 -0.675949,1.848 -1.445812,3.936 -1.710807,4.64 -0.264995,0.704 -0.563165,1.66593 -0.662598,2.13762 -0.228851,1.08562 -0.996275,1.86238 -1.840007,1.86238 -0.47616,0 -0.607126,-0.15257 -0.480704,-0.56 0.660183,-2.12767 2.904826,-8.39376 3.589773,-10.02112 0.455632,-1.08253 0.779034,-2.01762 0.718676,-2.07798 -0.09042,-0.0904 -2.276378,2.73365 -5.470791,7.06779 -0.320775,0.43522 -0.693661,0.79131 -0.828637,0.79131 -0.501504,0 -0.993914,-1.70617 -1.317949,-4.56661 -0.183475,-1.61964 -0.46143,-3.07263 -0.617677,-3.22888 -0.165449,-0.16545 -0.488323,0.40365 -0.773142,1.36274 -0.26898,0.90576 -1.123706,3.26366 -1.899392,5.23979 -0.775684,1.97613 -1.513722,4.02496 -1.640087,4.55296 -0.126365,0.528 -0.456854,1.212 -0.734419,1.52 -0.507114,0.56272 -1.685472,0.77828 -1.685472,0.30833 z m 17.387892,-1.20874 c -0.105616,-0.27522 -0.0111,-0.88722 0.210051,-1.36 0.221141,-0.47277 0.731181,-1.86759 1.133431,-3.09959 0.62734,-1.92142 3.29249,-8.92128 4.6603,-12.24 0.33848,-0.82124 0.61582,-1.04 1.31848,-1.04 0.54599,0 0.88985,0.17174 0.88985,0.44443 0,1.01282 -5.41776,15.78187 -6.26387,17.07557 -0.54194,0.82865 -1.665912,0.95533 -1.948242,0.21959 z m 10.261312,-0.90837 c -1.15093,-0.50989 -2.0492,-2.39552 -2.0492,-4.30165 0,-2.38869 2.07839,-7.44597 4.06868,-9.90016 1.28616,-1.58594 4.34806,-3.26941 5.94641,-3.26941 1.16356,0 2.46491,1.06678 2.46491,2.02062 0,0.66562 -0.24507,0.67174 -1.74836,0.0436 -1.9768,-0.82596 -3.1219,-0.2266 -4.96698,2.59978 -2.04602,3.13419 -2.80825,4.76622 -3.20726,6.86716 -0.53286,2.80572 0.0688,4.14882 1.85841,4.14882 1.03168,0 2.34781,-1.29899 3.14694,-3.10598 0.84628,-1.91359 0.95835,-2.7111 0.34807,-2.47692 -0.61539,0.23615 -1.64522,-0.64532 -1.42485,-1.21958 0.26836,-0.69934 3.35831,-1.33872 3.97923,-0.8234 0.60834,0.50487 0.32535,2.01146 -0.87513,4.65907 -1.66012,3.66131 -2.65993,4.61066 -5.27007,5.00405 -0.79396,0.11967 -1.65622,0.0262 -2.2708,-0.24602 z m 12.85468,-0.48483 c -0.76054,-0.84039 -0.52217,-1.98559 0.53612,-2.5757 0.79038,-0.44072 0.96962,-0.44078 1.76,-6.4e-4 1.16961,0.65139 1.34201,1.98209 0.34707,2.67897 -0.97546,0.68324 -1.9668,0.64473 -2.64319,-0.10267 z m 2.71956,-6.23814 c -0.2888,-0.34799 -0.26367,-0.80737 0.10941,-2 3.2723,-10.46055 3.8706,-11.80567 5.34749,-12.02243 1.15758,-0.1699 2.19966,0.5205 2.19966,1.45732 0,0.38876 -0.29235,1.2086 -0.64967,1.82185 -0.35732,0.61326 -1.72998,3.29739 -3.05037,5.96475 -2.02346,4.08767 -2.78521,5.23026 -3.48695,5.23026 -0.0521,0 -0.26336,-0.20329 -0.46957,-0.45175 z m -54.09813,-8.27204 c -0.437078,-0.22539 -0.938147,-0.81774 -1.113488,-1.31632 -0.279942,-0.79601 -0.210157,-0.99996 0.572531,-1.6732 1.089799,-0.9374 2.55074,-0.99159 3.415642,-0.12669 0.788474,0.78847 0.815651,1.64151 0.08,2.5109 -0.732093,0.86519 -1.962118,1.11718 -2.954685,0.60531 z m 2.093664,-2.1255 C 73.339771,149.91782 72.890731,149.76 72.461119,149.76 c -0.930535,0 -1.117933,1.15502 -0.221114,1.36284 0.68584,0.15892 1.51648,-0.53077 1.218979,-1.01213 z m 23.148728,-8.60947 c -3.438224,-3.2053 -4.712243,-3.75011 -6.545434,-2.79904 -1.463043,0.75903 -2.956422,-0.57737 -1.922211,-1.72017 0.857808,-0.94786 1.713165,-3.32616 2.424784,-6.74203 0.384989,-1.848 0.754752,-3.44997 0.821696,-3.55994 0.06694,-0.10997 0.27769,-1.62197 0.46833,-3.36 0.19064,-1.73803 0.69928,-4.56203 1.130307,-6.27554 0.43103,-1.71352 0.872173,-3.96203 0.980317,-4.99669 l 0.196624,-1.8812 -1.163971,-0.21836 c -0.640183,-0.1201 -2.276913,-0.57159 -3.637181,-1.00332 -3.072676,-0.97521 -3.704305,-0.9784 -4.982318,-0.0252 -0.560256,0.41787 -1.738649,0.9902 -2.618649,1.27184 -2.710138,0.86735 -10.0421,2.39066 -14.080001,2.92531 -2.112,0.27964 -5.280001,0.78841 -7.040001,1.13061 -1.76,0.34219 -3.488,0.62646 -3.84,0.63171 -1.795959,0.0268 -5.203165,0.54688 -5.812922,0.88736 -0.381107,0.21281 -1.593895,1.40068 -2.695082,2.63971 -3.123946,3.51501 -6.010752,5.38236 -6.62472,4.28527 -0.313383,-0.55999 0.797593,-2.35732 3.052723,-4.9387 0.572,-0.65475 1.04,-1.39806 1.04,-1.6518 0,-0.25374 0.42688,-0.87032 0.948621,-1.37018 0.521744,-0.49987 0.877731,-1.02355 0.791085,-1.16374 -0.08664,-0.1402 -0.85336,-0.17249 -1.703811,-0.0718 -1.473562,0.17452 -1.553799,0.14377 -1.706321,-0.6541 -0.189328,-0.9904 0.159364,-1.33029 1.670426,-1.62823 0.616,-0.12147 1.372,-0.2918 1.68,-0.37852 0.308,-0.0867 1.023423,0.0699 1.023423,0.22675 0,0.15682 -1.001893,0.31923 -1.660024,0.48227 -0.772973,0.19149 -1.237264,0.50939 -1.31146,0.89795 -0.101363,0.53085 0.02352,0.57556 1.063066,0.38053 1.341283,-0.25162 2.897184,0.50768 2.604295,1.27093 -0.132544,0.34541 0.05929,0.40238 0.854902,0.25387 1.266451,-0.2364 1.906112,-0.74685 0.935895,-0.74685 -0.482829,0 -0.761585,-0.25373 -0.904548,-0.82333 -0.119293,-0.4753 -0.561494,-0.96487 -1.046096,-1.15814 -0.511241,-0.20391 -0.789544,-0.46347 -0.53603,-0.55723 0.228941,-0.0847 0.959013,0.0926 1.484459,0.31025 1.554365,0.64384 3.065795,0.46501 8.132119,-0.96218 2.64,-0.74369 6.115824,-1.55176 7.724055,-1.79571 2.730855,-0.41424 10.716932,-2.92664 11.366017,-3.57573 0.174877,-0.17487 -0.192327,-0.49594 -0.919456,-0.80391 -5.509863,-2.33372 -11.816884,-5.280298 -13.577332,-6.343191 -1.169697,-0.706221 -2.645697,-1.427331 -3.280001,-1.60247 -0.634307,-0.175136 -1.153283,-0.512154 -1.153283,-0.748922 0,-0.701485 3.530083,-3.761078 7.415127,-6.426838 5.365562,-3.681635 8.7653,-6.395981 11.560282,-9.229715 3.988916,-4.044218 10.594823,-14.433338 9.563233,-15.040106 -0.120253,-0.07073 -1.44264,-0.439994 -2.93864,-0.820586 -2.808768,-0.714563 -6.488013,-1.785017 -15.040001,-4.375792 -2.728,-0.826432 -6.731773,-1.984048 -8.897271,-2.572483 -4.367588,-1.186806 -5.18273,-1.52944 -5.18273,-2.178499 0,-0.662938 0.676275,-0.763699 1.849462,-0.275565 0.577204,0.240157 2.305204,0.732183 3.840001,1.093383 1.534796,0.361203 5.791597,1.581491 9.459562,2.711753 3.667962,1.130263 6.886224,2.055021 7.151693,2.055021 0.265472,0 2.215546,0.581379 4.333504,1.291949 2.117956,0.710573 4.465214,1.376163 5.216129,1.479088 1.207081,0.165446 1.412166,0.09917 1.769728,-0.571952 0.222438,-0.417498 0.9892,-1.534925 1.703914,-2.483178 1.289382,-1.710691 1.300016,-1.747757 1.368221,-4.769046 0.09166,-4.060455 0.05157,-4.026714 4.812045,-4.049152 3.75391,-0.0177 3.757046,-0.01837 4.052247,-0.852771 0.38078,-1.076285 0.0193,-2.50673 -0.686039,-2.714503 -0.302755,-0.08919 -1.054464,-0.421651 -1.670464,-0.738806 -0.809965,-0.417021 -1.695783,-0.553847 -3.2,-0.494282 -3.59378,0.142307 -7.048036,0.536768 -7.226305,0.82521 -0.09431,0.152595 -0.42952,0.277443 -0.744922,0.277443 -0.315398,0 -1.26352,0.366912 -2.106937,0.81536 -1.173213,0.623805 -1.76705,0.760669 -2.527661,0.582563 -1.13776,-0.266419 -2.472583,-0.179104 -2.855354,0.186778 -0.143648,0.137309 0.455734,1.068909 1.331958,2.070221 1.745527,1.99471 2.823591,3.94735 2.399997,4.346988 -0.916803,0.86496 -7.79033,2.232352 -11.24082,2.236202 -2.14975,0.0022 -2.325488,-0.405206 -1.22855,-2.849507 0.9388,-2.09193 1.382336,-3.875603 0.958592,-3.854973 -0.154,0.0075 -0.830522,0.727494 -1.503379,1.6 C 69.303768,53.686134 68.626293,54.4 68.471125,54.4 c -0.155165,0 -0.376672,-0.504 -0.492234,-1.12 -0.183514,-0.978221 -0.329142,-1.12 -1.15039,-1.12 -1.040928,0 -2.497309,-0.65537 -3.117789,-1.402998 -0.350516,-0.422349 -0.243869,-0.466871 0.823308,-0.343706 l 1.225985,0.141491 -1.200001,-0.520816 C 63.177998,49.43416 63.001396,48.96 64.160004,48.96 c 0.44,0 0.800001,-0.144 0.800001,-0.32 0,-0.176 -0.141073,-0.32 -0.313498,-0.32 -0.386832,0 -1.721543,-2.551626 -1.467565,-2.805606 0.100973,-0.10097 0.508982,0.122112 0.906691,0.495737 0.659501,0.619568 2.755239,1.669869 3.332007,1.669869 0.131005,0 -0.234103,-0.396 -0.811351,-0.88 -0.786902,-0.659789 -1.094707,-1.220326 -1.230044,-2.24 -0.09928,-0.748 -0.05849,-1.36 0.09063,-1.36 0.14913,0 0.949459,0.668115 1.778512,1.484704 1.304474,1.284858 1.725914,1.505702 3.130992,1.640714 1.903524,0.182902 2.069418,-0.163274 0.674049,-1.406557 -0.522266,-0.465341 -1.117687,-1.366451 -1.323159,-2.002467 -0.205472,-0.636016 -0.727498,-1.767796 -1.160054,-2.515066 -0.887053,-1.532435 -1.017476,-1.412726 2.152787,-1.975907 1.352512,-0.240266 2.599523,-0.27008 3.565399,-0.08524 0.816972,0.156346 3.291417,0.214688 5.498768,0.129655 2.20735,-0.08503 4.268199,-0.05682 4.579661,0.0627 0.496147,0.19039 0.456605,0.289267 -0.319216,0.798198 -0.48703,0.319488 -1.2564,1.140771 -1.709712,1.825075 -0.453312,0.684304 -1.182813,1.631594 -1.621117,2.105085 -1.16455,1.258048 -0.78353,1.923053 0.958122,1.672234 1.98512,-0.285882 3.781504,-0.761946 4.959686,-1.314378 0.81337,-0.381373 1.068816,-0.730672 1.207562,-1.651222 0.09678,-0.642141 0.304893,-1.565738 0.462467,-2.052436 0.208714,-0.644672 0.119789,-1.359212 -0.327565,-2.632006 -0.903811,-2.57151 -0.800764,-5.073062 0.33745,-8.191842 1.084723,-2.972211 2.825034,-6.272484 4.271396,-8.100154 2.257805,-2.853027 8.514207,-5.903715 12.676077,-6.180991 4.26492,-0.284142 12.17503,1.569454 15.86103,3.716754 4.24921,2.475405 5.92,5.01726 5.92,9.006379 0,2.03312 -0.10731,2.544691 -0.63374,3.021102 -0.34856,0.315441 -0.72459,1.057759 -0.83561,1.649597 -0.11104,0.591837 -0.32615,1.076067 -0.47805,1.076067 -0.42405,0 -1.2526,1.788669 -1.2526,2.704109 0,0.448739 -0.29044,1.106329 -0.64542,1.461309 -0.60573,0.605728 -0.61454,0.705126 -0.14327,1.616464 0.27618,0.534073 0.71062,1.051043 0.96542,1.148819 0.81241,0.31175 0.49892,1.305049 -0.62029,1.965395 -0.80131,0.472787 -1.21995,1.049952 -1.60718,2.215792 -0.89174,2.684803 -3.01051,4.242813 -7.94161,5.83977 -3.0554,0.9895 -4.40765,1.93631 -4.40765,3.086105 0,0.237303 0.756,0.812701 1.68,1.278666 2.24021,1.129718 4.41891,2.891961 6.60215,5.340163 0.98882,1.108813 2.48181,2.638986 3.31775,3.400384 3.93538,3.584419 9.53721,11.56784 10.34458,14.742525 0.48008,1.887725 -0.0351,2.697363 -2.41255,3.791142 -2.03523,0.936362 -5.01837,1.179021 -12.84924,1.04521 -3.63501,-0.06211 -4.71303,0.01411 -4.83761,0.342112 -0.24735,0.651197 0.32037,8.920893 0.69886,10.179923 0.18483,0.614838 0.33762,2.198838 0.33952,3.52 0.002,1.321162 0.19965,3.050114 0.43943,3.842114 0.23978,0.792 0.83295,3.78962 1.31816,6.66139 0.69246,4.09842 0.80589,5.38884 0.52743,6 -0.41728,0.91583 -1.5193,1.02733 -2.93224,0.29667 -1.37064,-0.70879 -5.87453,-1.72229 -8.71624,-1.9614 l -2.48,-0.20868 v 1.74294 c 0,1.37588 -0.26675,2.29454 -1.26664,4.36217 -0.696646,1.44058 -1.428118,3.23296 -1.625494,3.98307 -0.197373,0.75011 -0.85289,2.69356 -1.456701,4.31876 -0.989559,2.66349 -2.051171,6.77056 -2.051171,7.9354 0,0.24667 0.945523,1.49725 2.101164,2.77908 2.775031,3.07804 4.030002,5.00366 3.912772,6.00376 -0.161344,1.37646 -1.035875,1.07245 -3.486231,-1.21192 z m 0.992295,-1.61052 c 0,-0.1481 -0.912064,-1.14508 -2.02681,-2.21552 -1.998605,-1.91916 -3.635885,-2.6666 -4.834048,-2.20683 -0.506436,0.19434 -1.602576,2.09486 -1.352477,2.34496 0.08462,0.0846 0.614749,-0.0845 1.178061,-0.37577 0.632393,-0.32703 1.338563,-0.45074 1.845949,-0.3234 0.844496,0.21196 4.090237,2.2419 4.408797,2.75734 0.224979,0.36403 0.780528,0.37771 0.780528,0.0192 z m -4.480001,-7.05648 c 0,-1.11114 -0.142345,-1.62039 -0.490243,-1.75389 -0.572928,-0.21985 -1.109757,0.93168 -1.109757,2.38048 0,0.78845 0.128388,0.93917 0.8,0.93917 0.744333,0 0.8,-0.10895 0.8,-1.56576 z m 0.146333,-3.21213 c 0.236656,-0.38291 -0.365318,-0.76231 -0.791552,-0.49888 -0.357875,0.22117 -0.122934,0.79677 0.325219,0.79677 0.155226,0 0.365076,-0.13405 0.466333,-0.29789 z m 0.813668,-2.22787 c 0,-0.15717 -0.227776,-0.37317 -0.506173,-0.48 -0.71522,-0.27446 -0.773828,-0.25282 -0.773828,0.28576 0,0.26667 0.284445,0.48 0.64,0.48 0.352,0 0.640001,-0.1286 0.640001,-0.28576 z m 0.64,-1.91792 c 0,-0.15603 -0.432,-0.34708 -0.960001,-0.42458 -0.6551,-0.0961 -0.96,-0.006 -0.96,0.28368 0,0.25842 0.375693,0.42458 0.96,0.42458 0.528001,0 0.960001,-0.12766 0.960001,-0.28368 z M 95.619728,122.96 c 0.185552,-0.484 0.43576,-1.24 0.556016,-1.68 0.120253,-0.44 0.940055,-2.36286 1.821773,-4.27302 1.540906,-3.33822 1.58737,-3.52078 1.197107,-4.70329 -0.370377,-1.12226 -0.543852,-1.25982 -1.97607,-1.56698 -0.863527,-0.18519 -1.63496,-0.33671 -1.714298,-0.33671 -0.07934,0 -0.144249,0.98155 -0.144249,2.18123 0,2.72692 -0.520493,5.61001 -1.282413,7.1035 -0.321287,0.62977 -0.683978,1.67714 -0.805981,2.32748 -0.196282,1.04627 -0.134871,1.21726 0.533283,1.48483 1.194122,0.4782 1.455242,0.40093 1.814832,-0.53704 z m -50.109946,-3.2 c 0.99536,-1.012 1.906464,-2.236 2.024672,-2.72 0.118212,-0.484 0.139098,-0.88 0.04641,-0.88 -0.602224,0 -1.180864,0.47581 -1.180864,0.97101 0,0.3204 -0.386499,0.88656 -0.858883,1.25814 -0.795974,0.62611 -2.341117,2.62848 -2.341117,3.03387 0,0.48789 0.665562,0.009 2.309779,-1.66302 z m 8.890222,-6.48 c 0,-0.176 -0.288,-0.32 -0.64,-0.32 -0.352,0 -0.64,0.144 -0.64,0.32 0,0.176 0.288,0.32 0.64,0.32 0.352,0 0.64,-0.144 0.64,-0.32 z m 2.160093,-0.23983 c 0.174963,-0.52548 -0.827674,-0.90059 -1.257722,-0.47054 -0.184032,0.18403 -0.232928,0.49913 -0.108653,0.70021 0.282736,0.45747 1.188263,0.30527 1.366375,-0.22967 z m 7.177043,-1.12215 c 0.476967,-0.75197 0.03114,-1.03788 -1.491404,-0.95645 -2.563706,0.13712 -4.123342,1.26634 -2.344618,1.69756 0.996006,0.24147 3.522374,-0.24662 3.836022,-0.74111 z m 10.182865,-1.4265 c 6.04274,-1.2215 8.56881,-2.00886 9.403297,-2.93096 0.505414,-0.55848 0.433328,-0.61789 -1.532916,-1.26336 l -2.06327,-0.67732 -2.343555,1.08085 c -2.424996,1.11842 -7.582801,2.73792 -8.729723,2.74106 -1.408525,0.004 -3.019645,0.66637 -3.229673,1.32812 -0.457901,1.44272 0.06659,1.42553 8.49584,-0.27839 z m 38.994785,0.3954 c 0.15416,-0.81133 -0.43128,-4.2517 -1.4188,-8.33756 -0.42679,-1.76585 -0.7861,-4.069846 -0.79848,-5.119997 -0.022,-1.867747 -0.54172,-4.083353 -0.59501,-2.536595 -0.0886,2.571149 -2.21669,7.759762 -3.72629,9.085202 -0.97801,0.85871 -2.86144,1.56346 -3.22002,1.20488 -0.0869,-0.0869 0.5466,-0.81716 1.40784,-1.62274 2.52022,-2.35738 4.23598,-6.28162 4.23598,-9.688456 0,-1.862806 -0.5106,-2.0211 -0.75552,-0.234227 -0.67246,4.906151 -6.4637,11.280503 -8.446841,9.297353 -0.499713,-0.49971 -0.493562,-0.53486 0.09378,-0.53598 0.893241,-0.002 2.574751,-1.09709 3.238011,-2.10935 0.54561,-0.832708 2.45385,-7.48945 2.14695,-7.48945 -0.0834,0 -0.51511,0.821939 -0.95939,1.826534 -2.4245,5.482226 -9.287437,11.089266 -12.212103,9.977306 -0.76766,-0.29186 -1.328397,-0.81273 -1.339049,-1.24384 -0.0022,-0.088 0.751619,-0.16235 1.675101,-0.16522 2.090768,-0.006 4.221238,-1.03256 6.274598,-3.02191 L 100,98.734678 98.915723,98.623763 c -1.49784,-0.153222 -2.381542,0.117335 -3.524509,1.079079 -0.949833,0.799228 -1.637037,0.815408 -1.625609,0.03827 0.0032,-0.209613 0.759085,-0.818442 1.68,-1.352951 1.418704,-0.82343 1.953638,-1.434259 3.503011,-4 1.954884,-3.237254 2.101714,-3.584134 1.403754,-3.316304 -1.020858,0.391741 -0.777853,-0.589353 0.43075,-1.739069 0.71329,-0.678534 1.29689,-1.405001 1.29689,-1.614377 0,-0.209376 -0.41773,0.09233 -0.92828,0.670451 -1.598298,1.80983 -6.111728,4.150717 -6.111728,3.16984 0,-0.19287 0.612,-0.733843 1.36,-1.202163 2.902877,-1.817469 5.040008,-4.240109 5.040008,-5.713331 0,-1.09832 -1.1399,-1.379738 -5.71284,-1.410381 C 92.815734,83.213309 91.165168,83.06033 90.395197,82.738614 89.260083,82.264333 88.889475,81.6 89.760006,81.6 c 0.580839,0 0.638634,-0.528954 0.08,-0.732192 -0.593459,-0.215907 0.184259,-1.373357 0.842445,-1.253779 0.284656,0.05172 0.517555,-0.05629 0.517555,-0.24 0,-0.183715 -0.128595,-0.334029 -0.285763,-0.334029 -0.301315,0 -0.773453,-0.967453 -0.570957,-1.169946 0.06509,-0.06509 0.940416,0.245216 1.945168,0.689568 4.211412,1.862484 5.869716,2.133213 13.941496,2.276042 4.13047,0.07309 8.37847,0.273875 9.44,0.446195 2.32457,0.377347 4.34564,0.400048 4.88916,0.05491 0.2195,-0.139385 0.56782,-1.446496 0.77403,-2.904691 l 0.37494,-2.651261 -1.05635,-0.850409 c -1.88393,-1.51666 -2.91947,-1.978077 -3.60997,-1.608535 -0.49148,0.263034 -0.77504,0.189312 -1.35021,-0.35103 -0.52442,-0.492672 -0.95485,-0.627069 -1.53884,-0.480499 -0.57922,0.145376 -0.8972,0.04905 -1.11341,-0.337287 -0.19626,-0.350713 -0.85385,-0.596173 -1.87096,-0.698387 -0.86259,-0.08669 -2.90205,-0.57545 -4.53216,-1.086141 C 105.00608,69.85784 103.36475,69.44 102.98879,69.44 c -0.37596,0 -3.764438,-0.881802 -7.529951,-1.959555 -3.765511,-1.077757 -6.895306,-1.905757 -6.955098,-1.84 -0.05979,0.06575 -0.646935,1.199555 -1.304762,2.519555 -2.460317,4.93687 -6.706983,10.709267 -10.615348,14.429206 -2.035408,1.93728 -7.686701,6.304052 -12.240318,9.458128 -2.011181,1.393053 -3.706483,2.682186 -3.767334,2.864746 -0.06085,0.182557 0.216659,0.4776 0.616691,0.655651 0.400035,0.178051 2.815334,1.351389 5.367335,2.607418 10.413303,5.125151 21.358638,9.339721 27.090376,10.431311 1.380294,0.26287 4.525626,0.78613 6.989629,1.16279 2.464,0.37666 5.632,0.95298 7.04,1.28071 3.27882,0.76319 5.06937,0.70742 5.23478,-0.16304 z M 92.480006,92.674237 c 0,-0.419283 0.649696,-0.834237 1.306173,-0.834237 0.496896,0 0.324868,0.879616 -0.212345,1.085763 -0.78858,0.302608 -1.093828,0.232416 -1.093828,-0.251526 z m 8.314474,3.123168 c 0.86202,-0.981783 0.98934,-1.330157 0.81865,-2.24 -0.14815,-0.789699 -0.0871,-1.077405 0.22861,-1.077405 0.47924,0 1.98238,-2.842554 1.66891,-3.156029 -0.10926,-0.109251 -0.33553,0.04596 -0.50283,0.344906 -0.1673,0.29895 -0.77263,1.16175 -1.34519,1.917334 -1.4175,1.870647 -2.782623,4.260186 -2.782623,4.870771 0,0.850912 0.843357,0.560356 1.914473,-0.659577 z m 25.76553,-14.352448 c -0.528,-0.232682 -1.068,-0.35649 -1.2,-0.275123 -0.132,0.08137 -0.24,0.0092 -0.24,-0.1605 0,-0.177974 0.57524,-0.231734 1.36,-0.1271 1.24024,0.165366 1.32132,0.134505 0.92082,-0.350448 C 127.14177,80.218109 127.10122,80 127.30194,80 c 0.18716,0 0.42929,0.144 0.53807,0.32 0.28673,0.463942 0.8,0.39247 0.8,-0.111402 0,-0.237267 -0.576,-0.691139 -1.28,-1.008598 -0.704,-0.317459 -1.28,-0.717331 -1.28,-0.888598 0,-0.625837 2.08527,0.123241 3.1112,1.117612 0.7111,0.689223 1.0488,0.859012 1.0488,0.527316 0,-0.650605 -2.32557,-2.49377 -3.61193,-2.862695 -2.10819,-0.604621 -2.42166,-0.449197 -3.44141,1.706365 -1.45315,3.071693 -1.42414,3.124701 1.69334,3.09401 2.46986,-0.02432 2.57813,-0.05325 1.68,-0.449053 z M 128.58074,75.92 c -0.13675,-0.721082 -1.86073,-0.984874 -1.86073,-0.28472 0,0.444198 0.52367,0.718205 1.54346,0.8076 0.23916,0.02096 0.37724,-0.206618 0.31727,-0.52288 z m -2.46848,-1.407507 c 0.59826,-0.202128 1.13379,-0.404173 1.19007,-0.448989 0.0563,-0.04482 -0.20302,-0.680006 -0.57621,-1.411533 -0.60663,-1.189091 -9.05558,-10.352032 -10.1307,-10.986809 -0.774,-0.456992 -1.5213,1.663488 -1.17232,3.326512 0.16254,0.774579 0.19319,1.768326 0.0681,2.208326 -0.12507,0.44 -0.24176,1.387696 -0.2593,2.105987 l -0.0319,1.305991 2.96,1.180803 c 1.628,0.64944 3.68,1.594285 4.56,2.099654 1.88256,1.081123 1.97667,1.098323 3.39225,0.620058 z M 113.69889,68.24 c 0.0781,-0.308 0.16278,-1.405955 0.18816,-2.439898 0.0359,-1.460377 -0.0803,-1.97584 -0.52044,-2.30982 -0.31163,-0.236461 -0.66427,-0.434506 -0.78363,-0.440106 -0.37343,-0.0175 0.006,2.960336 0.40861,3.209341 0.24347,0.150473 0.31458,0.655264 0.1956,1.388457 -0.1869,1.15176 0.24348,1.649709 0.5117,0.592026 z m -8.73888,-0.521085 c 0,-0.399865 -3.67037,-2.848998 -4.89493,-3.266246 -0.805985,-0.274627 -1.654347,-0.728755 -1.885249,-1.009175 -0.710317,-0.86264 1.641232,-0.290672 4.785519,1.163984 1.52439,0.705232 2.82341,1.230436 2.88673,1.167117 0.0633,-0.06332 -0.092,-0.524502 -0.34513,-1.024857 -0.25313,-0.500356 -0.70169,-1.648804 -0.99681,-2.552103 -0.29511,-0.903302 -0.81921,-1.898157 -1.16467,-2.210793 -0.56457,-0.510932 -0.79991,-0.52721 -2.32664,-0.160954 -1.661825,0.398666 -1.737914,0.385245 -3.520778,-0.620941 -2.280599,-1.287088 -3.78922,-1.383101 -4.849383,-0.308624 -0.776768,0.787258 -3.048663,4.380768 -3.048663,4.822144 0,0.129866 0.828,0.47281 1.84,0.762096 1.012,0.289283 2.848001,0.888359 4.080001,1.331271 3.292566,1.183702 6.535053,1.990531 8.080003,2.010547 0.748,0.0097 1.36,-0.03687 1.36,-0.103466 z m 3.22331,-3.183606 c -0.24442,-0.244413 -0.34331,-0.0176 -0.34331,0.787357 0,1.470995 0.44945,1.923462 0.58331,0.587225 0.0568,-0.5672 -0.0512,-1.18576 -0.24,-1.374582 z m -1.30331,0.325853 c 0,-0.406362 -0.22279,-1.018362 -0.49508,-1.36 -0.46475,-0.583114 -0.48205,-0.55256 -0.28237,0.498838 0.32687,1.721107 0.77745,2.220202 0.77745,0.861162 z m 1.37615,-1.93018 c 0.0906,-0.235961 0.0362,-0.631961 -0.12086,-0.88 -0.20778,-0.328214 -0.28683,-0.211427 -0.29039,0.429018 -0.005,0.955594 0.15159,1.127661 0.41125,0.450982 z m 2.14385,-0.672096 c 0,-0.07761 -0.144,-0.230112 -0.32,-0.338886 -0.176,-0.108774 -0.32,-0.04527 -0.32,0.141114 0,0.186387 0.144,0.338886 0.32,0.338886 0.176,0 0.32,-0.0635 0.32,-0.141114 z m 2.1147,-2.128208 c 0.056,-1.243228 0.0943,-1.289801 0.7653,-0.930678 1.14648,0.613578 0.75357,-0.631059 -0.60814,-1.926422 -1.61194,-1.533396 -5.00217,-2.923188 -9.67039,-3.964282 -4.141822,-0.923696 -4.994984,-0.983002 -6.826459,-0.474528 -1.370176,0.380406 -3.375015,2.146576 -3.375015,2.973232 0,0.93809 0.986138,0.5276 1.460625,-0.608 0.433574,-1.037693 1.173011,-1.45751 1.535139,-0.871578 0.08444,0.136631 -0.01088,0.864455 -0.211866,1.617389 -0.449795,1.685162 0.03555,2.187418 1.42129,1.470823 1.132115,-0.58544 1.234813,-0.575514 1.234813,0.119366 0,1.428746 1.65407,1.758323 3.402233,0.677901 0.59277,-0.366355 1.07777,-0.513674 1.07777,-0.327376 0,0.186297 0.36369,0.577021 0.8082,0.868275 0.71584,0.469034 0.87126,0.47544 1.36,0.05605 1.09195,-0.937008 1.31753,-0.925338 1.8454,0.09546 0.57101,1.104211 0.99959,0.943274 1.16177,-0.436256 0.15601,-1.327001 0.63487,-1.199334 1.13556,0.302743 0.35168,1.05504 0.69067,1.434864 1.62666,1.822576 1.46294,0.605987 1.81284,0.518432 1.85711,-0.464692 z M 77.34126,56.480394 c 2.981859,-0.48362 4.578746,-1.003885 4.578746,-1.49176 0,-0.147748 -0.117485,-0.268634 -0.261076,-0.268634 -0.14359,0 -0.584508,-0.575475 -0.979817,-1.278832 C 80.039116,52.302448 78.207074,50.56 77.649801,50.56 c -0.115389,0 -0.215431,0.612 -0.22232,1.36 l -0.01251,1.36 -0.435876,-1.001584 c -0.607577,-1.396134 -0.875325,-1.479098 -2.481088,-0.76879 -1.066858,0.47192 -1.57839,0.959696 -2.094672,1.997388 -1.160723,2.332989 -1.376365,3.072004 -0.947286,3.246397 0.744003,0.302394 2.975757,0.198861 5.885226,-0.273017 z m 31.42433,-4.64545 c 1.17545,-1.462685 3.82728,-2.910832 6.43442,-3.513789 2.20094,-0.509014 3.40525,-1.108819 3.83369,-1.909369 0.29229,-0.546141 0.20604,-0.642464 -0.71051,-0.79353 -0.57375,-0.09457 -1.546,-0.20936 -2.16056,-0.255098 -0.76858,-0.0572 -1.1505,-0.257968 -1.22346,-0.643158 -0.0717,-0.378243 0.0966,-0.56 0.51829,-0.56 0.34342,0 1.16304,-0.225066 1.8214,-0.500144 1.14431,-0.478125 1.22985,-0.469296 1.9428,0.200483 0.77107,0.724378 1.73835,0.661731 1.73835,-0.112589 0,-0.237785 -0.37592,-0.75919 -0.83537,-1.158678 -0.62335,-0.542 -0.74315,-0.818557 -0.47201,-1.089693 0.27114,-0.271136 0.53051,-0.25896 1.02201,0.04798 0.54896,0.342835 0.78744,0.32695 1.43201,-0.09539 0.93542,-0.612912 0.93854,-0.646793 0.13336,-1.451971 -0.84123,-0.841232 -0.80882,-1.523491 0.22286,-4.691421 0.86247,-2.648365 0.85056,-3.426654 -0.0411,-2.68663 -0.26055,0.21623 -0.63468,0.293664 -0.83142,0.172073 -0.19674,-0.12159 -0.67105,0.07242 -1.05402,0.431136 -1.11791,1.047104 -2.40094,1.399101 -5.97631,1.639594 -3.05805,0.205699 -3.51098,0.321488 -5.04,1.288461 -1.21175,0.766323 -1.68,1.262553 -1.68,1.780384 0,0.394861 -0.20372,0.796105 -0.45271,0.891651 -0.24899,0.09555 -0.64499,0.574432 -0.88,1.064192 -0.28816,0.600528 -0.81735,0.999846 -1.62523,1.226374 -0.65887,0.184743 -1.42472,0.659671 -1.7019,1.055396 -0.59838,0.85431 -1.10016,0.658144 -1.10016,-0.430096 0,-0.429613 -0.0602,-0.781114 -0.13383,-0.781114 -0.0736,0 -0.36161,-0.08741 -0.64,-0.194237 -0.66898,-0.25671 -0.67957,0.981072 -0.0219,2.555159 0.57067,1.365798 1.21376,1.475299 1.96157,0.333993 0.45775,-0.698611 0.58358,-0.748313 0.82091,-0.32424 0.38097,0.680759 -0.19531,1.673879 -1.30397,2.247191 -0.82338,0.425782 -0.95286,0.409856 -1.55387,-0.191156 -0.72556,-0.725561 -3.566373,-1.39727 -4.01443,-0.949212 -0.161815,0.161814 0.102496,0.37718 0.622067,0.506876 2.504163,0.625092 4.263433,2.918004 4.263433,5.556656 0,1.06008 0.11664,1.339952 0.56,1.343684 0.308,0.0026 1.424,0.282848 2.48,0.62279 1.056,0.339942 2.0759,0.625824 2.26644,0.635286 0.19054,0.0095 0.81116,-0.561065 1.37915,-1.267846 z M 115.76001,39.81697 C 114.82106,39.307584 114.54144,38.08 115.36435,38.08 c 0.26639,0 0.74329,-0.161712 1.05977,-0.359363 0.44478,-0.277767 0.81071,-0.237693 1.61165,0.176489 0.60945,0.315159 1.31316,0.447956 1.70864,0.322436 0.54155,-0.171882 0.63185,-0.107719 0.464,0.329683 -0.11462,0.298704 -0.2084,0.601389 -0.2084,0.672633 0,0.222743 -2.29163,1.098775 -2.83908,1.085309 -0.28651,-0.007 -0.91692,-0.227645 -1.40092,-0.490217 z m -0.88,-3.088733 c 0,-0.659981 1.38628,-1.208237 3.05505,-1.208237 1.00465,0 1.42495,0.131482 1.42495,0.445763 0,0.562861 -0.42102,0.720845 -2.66984,1.001815 -1.4743,0.184201 -1.81016,0.139795 -1.81016,-0.239341 z M 74.240005,47.68 c 0,-0.176 -0.576,-0.32 -1.28,-0.32 -0.704,0 -1.28,0.144 -1.28,0.32 0,0.176 0.576,0.32 1.28,0.32 0.704,0 1.28,-0.144 1.28,-0.32 z m 7.555972,-0.809987 C 82.502905,45.791104 82.187583,45.571315 80.729148,46.126397 79.174924,46.717939 78.902466,47.68 80.289164,47.68 c 0.691254,0 1.13096,-0.236362 1.506813,-0.809987 z m 2.444029,-0.199111 C 84.978617,45.798016 84.950761,45.12 84.176291,45.12 c -0.563965,0 -2.256285,1.788784 -2.256285,2.384896 0,0.460784 1.759651,-0.171773 2.32,-0.833994 z M 73.292411,44.503181 c -0.181561,-0.339248 -0.239523,-0.852883 -0.128806,-1.141408 0.163971,-0.427309 0.375779,-0.312922 1.142151,0.616819 0.517462,0.627773 1.045667,1.141408 1.173782,1.141408 0.128115,0 0.559898,-0.672982 0.959517,-1.495517 0.719882,-1.481737 0.730141,-1.488371 1.113213,-0.72 0.646694,1.297133 1.409686,0.946832 2.59473,-1.19128 l 1.090092,-1.966797 -0.837609,-0.160121 c -0.460688,-0.08806 -1.487034,0.03533 -2.280772,0.274208 -1.074467,0.323366 -1.807769,0.352614 -2.870345,0.114489 -1.889172,-0.423372 -4.84891,0.143095 -4.847162,0.927706 0.0022,0.985635 2.259558,4.217312 2.945843,4.217312 0.151514,0 0.126928,-0.277568 -0.05463,-0.616819 z M 97.120007,42.90153 c 0.843763,-0.119664 1.28,-0.345117 1.28,-0.66153 0,-0.582656 -1.479879,-0.480966 -2.779709,0.191005 -1.168208,0.603929 -1.548013,1.239888 -0.540365,0.904806 0.418042,-0.139011 1.336074,-0.334441 2.040074,-0.434281 z m -6.980833,-0.05955 c 0.495459,-0.196912 1.878365,-0.615978 3.07313,-0.931255 1.194762,-0.315277 2.557376,-0.825545 3.028026,-1.133926 0.80527,-0.527632 0.818698,-0.575178 0.227702,-0.806256 -0.345414,-0.135056 -1.000912,-0.25568 -1.456659,-0.268048 -0.581507,-0.01578 -0.948214,-0.284941 -1.229591,-0.902487 l -0.40095,-0.879996 -2.210413,2.317987 c -1.215728,1.274893 -2.210413,2.462889 -2.210413,2.639997 0,0.404508 0.07664,0.402166 1.179168,-0.03602 z M 93.957309,34.96 c 0.279622,-0.644394 0.68008,-1.04 1.052755,-1.04 0.799248,0 1.121005,0.92329 0.545834,1.566278 C 95.303152,35.768826 95.04768,36.504 94.988183,37.12 l -0.108176,1.12 1.92,0.03796 c 1.056,0.0209 1.452,-0.02426 0.88,-0.100275 -0.914663,-0.121578 -1.04,-0.255351 -1.04,-1.109965 0,-0.678432 0.328387,-1.300112 1.088,-2.059725 1.182157,-1.182157 2.338163,-1.493168 1.962528,-0.528 -0.418864,1.07625 -0.320986,1.200691 1.020905,1.297981 1.35253,0.09806 5.48122,-1.154637 6.44647,-1.955936 0.25312,-0.210125 1.08404,-0.399706 1.84649,-0.42129 0.76246,-0.0216 1.81758,-0.217897 2.34473,-0.436249 0.52715,-0.218352 1.29339,-0.312941 1.70276,-0.210199 1.09487,0.274797 3.71738,-1.551169 4.64625,-3.235025 0.80112,-1.452285 1.1578,-1.660507 1.46649,-0.856101 0.23246,0.605784 -0.24196,1.595443 -1.31868,2.750816 -0.43772,0.469698 -0.7059,0.999549 -0.59595,1.177443 0.34505,0.558314 2.11211,-1.370626 2.4696,-2.695841 0.18629,-0.690579 0.77187,-1.709186 1.30129,-2.26357 0.70464,-0.737866 0.90542,-1.188054 0.74928,-1.68 -0.11731,-0.369616 -0.0772,-0.672029 0.0891,-0.672029 0.53213,0 1.06832,0.892365 1.77387,2.952179 0.89592,2.615601 1.60679,2.716877 1.74634,0.248802 0.24871,-4.398399 -2.32778,-7.843814 -7.32441,-9.794563 -0.77828,-0.303851 -1.84705,-0.852598 -2.37505,-1.219437 -0.9214,-0.640162 -3.55823,-0.923702 -8.48,-0.911857 -2.05155,0.0049 -5.56305,1.040734 -7.2,2.123802 -0.880003,0.582241 -2.339069,1.30362 -3.242368,1.603064 -1.728567,0.57302 -2.463373,1.182694 -2.813975,2.334774 -0.11662,0.383219 -0.716966,0.994677 -1.334099,1.358794 -0.815942,0.481418 -1.393232,1.241517 -2.116035,2.78611 -0.946839,2.023347 -0.99538,2.323802 -1.023578,6.335545 -0.02557,3.637654 0.05366,4.338534 0.581478,5.144089 l 0.611082,0.932628 1.421754,-1.586967 C 92.866234,36.714134 93.709101,35.532 93.957309,34.96 Z m 8.587641,3.068634 c 0.92218,-0.42017 1.15183,-1.328602 0.25506,-1.008916 -0.75618,0.269565 -1.36,0.757716 -1.36,1.099463 0,0.365289 0.12741,0.354848 1.10494,-0.09055 z M 106.88001,37.76 c 0,-0.176 -0.1355,-0.32 -0.30112,-0.32 -0.16561,0 -0.39011,0.144 -0.49888,0.32 -0.10878,0.176 0.0267,0.32 0.30111,0.32 0.27439,0 0.49889,-0.144 0.49889,-0.32 z"
       id="path14"
       inkscape:connector-curvature="0"
       sodipodi:nodetypes="cccsscccccsscscccsccccsccccsssccccccsssscsccsccccccsssccscsscccscccccsscsccsscccsccsccscccscccscssscccscccccsccccsccccccscscsssccccssscsccssccssssccccsscccsssscssscccccccccccccccccsccsccscccccscccccscsssccccccccccccsccccccssccccsccccssccscsssccscsccssccccscccsssscscccccccsssccccsssccsccscccscsccccscsccccscsssscssccccccssccccccccssccccscccscccccccccccccscsssccscscsssscssscccccssccscccsscsccsssssccccccccscsccccscccccscsccccssccccccccscccssscsccsccssccsccccccccccsscccssscscsscsscscsscccscccsccscssscscscccsccccccccccsscccccccccsccccsccsscscscscsccssssccccssssscccscscccsscscscccccccsssscccccccccsccccsccscscscccccscsccccsscccccscsscsccccscsccsccssssssssssscsscssccccsccscccccscccsccccssscccssccsscscccsscsccscccccsscsccssccscssscccsccsccsscss" />
  </g>
</svg>
