<?xml version="1.0" encoding="UTF-8" standalone="no"?>
<!-- Created with Inkscape (http://www.inkscape.org/) -->

<svg
   xmlns:dc="http://purl.org/dc/elements/1.1/"
   xmlns:cc="http://creativecommons.org/ns#"
   xmlns:rdf="http://www.w3.org/1999/02/22-rdf-syntax-ns#"
   xmlns:svg="http://www.w3.org/2000/svg"
   xmlns="http://www.w3.org/2000/svg"
   xmlns:sodipodi="http://sodipodi.sourceforge.net/DTD/sodipodi-0.dtd"
   xmlns:inkscape="http://www.inkscape.org/namespaces/inkscape"
   version="1.1"
   id="svg2"
   width="234.28156"
   height="233.91876"
   viewBox="0 0 234.28156 233.91877"
   sodipodi:docname="e18-1-blindvejmedsti.svg"
   inkscape:version="0.92.2 (5c3e80d, 2017-08-06)">
  <metadata
     id="metadata8">
    <rdf:RDF>
      <cc:Work
         rdf:about="">
        <dc:format>image/svg+xml</dc:format>
        <dc:type
           rdf:resource="http://purl.org/dc/dcmitype/StillImage" />
        <dc:title />
      </cc:Work>
    </rdf:RDF>
  </metadata>
  <defs
     id="defs6" />
  <sodipodi:namedview
     pagecolor="#ffffff"
     bordercolor="#666666"
     borderopacity="1"
     objecttolerance="10"
     gridtolerance="10"
     guidetolerance="10"
     inkscape:pageopacity="0"
     inkscape:pageshadow="2"
     inkscape:window-width="1920"
     inkscape:window-height="1018"
     id="namedview4"
     showgrid="false"
     inkscape:zoom="3.2795338"
     inkscape:cx="141.45943"
     inkscape:cy="117.16577"
     inkscape:window-x="0"
     inkscape:window-y="28"
     inkscape:window-maximized="1"
     inkscape:current-layer="svg2" />
  <g
     id="g20"
     transform="translate(-0.45823905,-0.8470111)">
    <path
       style="fill:#fc3b3f;stroke-width:0.40000001"
       d="m 16.043332,234.36736 c -3.025549,-0.59418 -6.7409416,-2.61307 -9.299828,-5.05338 -2.67613,-2.55212 -3.8858031,-4.3859 -5.2416403,-7.94594 L 0.6,219 0.48773444,119.4 C 0.40689824,47.683576 0.50003336,19.049867 0.82041264,17.120527 2.2442704,8.5459876 9.1269512,1.9258116 17.8,0.7885398 19.979503,0.50274784 52.507836,0.40577728 119.8,0.48446652 L 218.6,0.6 l 2.55463,0.9226535 c 6.95661,2.5125177 11.96353,8.2163425 13.21185,15.0508105 0.3039,1.663836 0.43175,31.980828 0.42761,101.399996 -0.007,108.99826 0.1648,101.56502 -2.45395,106.47831 -1.58345,2.97084 -4.91557,6.30388 -7.88373,7.88589 -4.9732,2.65069 3.14995,2.46681 -106.84045,2.41851 C 62.717184,234.73207 17.009499,234.5571 16.043332,234.36736 Z M 219.4,232.25546 c 6.32589,-1.69232 11.13672,-6.53424 12.78684,-12.86944 C 232.72973,217.30169 232.8,205.67983 232.8,117.97056 232.8,52.702032 232.66164,18.174194 232.3944,16.754596 231.10092,9.883376 224.97191,3.9590383 217.98382,2.8252549 214.43829,2.2500102 20.186652,2.233593 17.156329,2.808282 10.115057,4.143632 4.3053396,9.7915424 2.8463749,16.719688 2.2503439,19.550045 2.208311,215.28004 2.8030607,218.41614 c 0.6112618,3.22317 2.1256713,6.14492 4.4696877,8.62338 2.430018,2.56938 4.6040286,3.95147 7.8463306,4.98816 2.181518,0.69752 6.638926,0.73003 102.280921,0.74606 82.27027,0.0138 100.3546,-0.0781 102,-0.51828 z M 16.002,226.10405 c -1.130203,-0.39981 -2.642265,-1.48031 -4.071131,-2.90918 -3.9056462,-3.90565 -3.5513158,7.05318 -3.434011,-106.20804 L 8.6,17.4 9.5478196,15.303343 C 10.642184,12.882516 12.904285,10.678749 15.551038,9.4549312 L 17.4,8.6 h 100.2 100.2 l 2.04296,0.9247188 C 222.23378,10.606894 224.35509,12.67444 225.66582,15.2 L 226.6,17 l 0.10311,100.07667 c 0.1031,100.05681 0.10295,100.07711 -0.7174,102.2697 -0.93811,2.50731 -3.17078,5.00301 -5.66921,6.33708 L 218.6,226.6 118.2,226.6701 c -90.8672,0.0634 -100.570717,0.01 -102.198,-0.566 z M 130.1,210.40617 131.6,210.4 V 169.2 128 H 147.8 164 V 102.6428 C 164,79.889336 163.935,77.26066 163.36728,77.042796 163.01929,76.909256 153.83929,76.8 142.96728,76.8 H 123.2 V 58.4 40 h -5.6 -5.6 v 18.4 18.4 l -2.1,0.01248 c -1.155,0.0069 -10.335,0.01208 -20.4,0.01152 l -18.3,-8e-4 v 25.58847 25.58847 h 16.2 16.2 v 41.17218 41.17218 l 0.9,0.12782 c 0.495,0.0703 6.12,0.0856 12.5,0.034 6.38,-0.0516 12.275,-0.0966 13.1,-0.1 z M 76,102.6 V 81.596296 L 117.7,81.698148 159.4,81.8 v 20.8 20.8 l -41.7,0.10185 -41.7,0.10185 z"
       id="path26"
       inkscape:connector-curvature="0" />
    <path
       style="fill:#007ac4;stroke-width:0.40000001"
       d="m 16.043332,234.36736 c -3.025549,-0.59418 -6.7409416,-2.61307 -9.299828,-5.05338 -2.67613,-2.55212 -3.8858031,-4.3859 -5.2416403,-7.94594 L 0.6,219 0.48773444,119.4 C 0.40689824,47.683576 0.50003336,19.049867 0.82041264,17.120527 2.2442298,8.546232 9.1262144,1.9265691 17.8,0.78815344 19.981468,0.50184048 52.44718,0.40505664 119.8,0.48408016 L 218.6,0.6 l 2.57842,0.9306665 c 6.89543,2.4888751 11.94764,8.2516191 13.18806,15.0427975 0.3039,1.663836 0.43175,31.980828 0.42761,101.399996 -0.007,108.99826 0.1648,101.56502 -2.45395,106.47831 -1.58345,2.97084 -4.91557,6.30388 -7.88373,7.88589 -4.9732,2.65069 3.14995,2.46681 -106.84045,2.41851 C 62.717184,234.73207 17.009499,234.5571 16.043332,234.36736 Z M 219.4,232.25546 c 6.40341,-1.71306 11.1165,-6.4566 12.78684,-12.86944 C 232.72976,217.30158 232.8,205.64219 232.8,117.6 232.8,29.299993 232.73093,17.901174 232.18306,15.78404 230.50325,9.292726 224.86233,4.0599428 218.22654,2.8373071 215.01292,2.2452027 20.273664,2.2170915 17.156329,2.808282 10.115057,4.143632 4.3053396,9.7915424 2.8463749,16.719688 2.5247803,18.246836 2.4,46.540888 2.4,117.93565 c 0,107.16413 -0.1172858,101.11413 2.0422672,105.3472 1.1075604,2.171 4.4985128,5.73151 6.6712048,7.0048 0.948577,0.5559 2.7511,1.33891 4.005607,1.74003 2.181518,0.69752 6.638926,0.73003 102.280921,0.74606 82.27027,0.0138 100.3546,-0.0781 102,-0.51828 z M 16.002,226.10405 c -1.130203,-0.39981 -2.642265,-1.48031 -4.071131,-2.90918 -3.9056462,-3.90565 -3.5513158,7.05318 -3.434011,-106.20804 L 8.6,17.4 9.5478196,15.303343 C 10.642184,12.882516 12.904285,10.678749 15.551038,9.4549312 L 17.4,8.6 h 100.2 100.2 l 2.04296,0.9247188 C 222.23378,10.606894 224.35509,12.67444 225.66582,15.2 L 226.6,17 l 0.10311,100.07667 c 0.1031,100.05681 0.10295,100.07711 -0.7174,102.2697 -0.93811,2.50731 -3.17078,5.00301 -5.66921,6.33708 L 218.6,226.6 118.2,226.6701 c -90.8672,0.0634 -100.570717,0.01 -102.198,-0.566 z M 130.1,210.40617 131.6,210.4 V 169.2 128 H 147.8 164 V 102.6428 C 164,79.889336 163.935,77.26066 163.36728,77.042796 163.01929,76.909256 153.83929,76.8 142.96728,76.8 H 123.2 V 58.4 40 h -5.6 -5.6 v 18.4 18.4 l -2.1,0.01248 c -1.155,0.0069 -10.335,0.01208 -20.4,0.01152 l -18.3,-8e-4 v 25.58847 25.58847 h 16.2 16.2 v 41.17218 41.17218 l 0.9,0.12782 c 0.495,0.0703 6.12,0.0856 12.5,0.034 6.38,-0.0516 12.275,-0.0966 13.1,-0.1 z"
       id="path24"
       inkscape:connector-curvature="0" />
    <path
       style="fill:#2a2827;stroke-width:0.40000001"
       d="M 16.204066,234.32991 C 11.596393,233.45125 6.2763284,229.78631 3.669671,225.6951 3.0055822,224.6528 2.0432336,222.63 1.5311184,221.2 L 0.6,218.6 0.48408016,119.8 C 0.4062308,53.44796 0.50395584,19.949054 0.78164064,17.8 1.2532423,14.150188 3.0605485,10.035116 5.3805636,7.3286696 7.3819776,4.9938916 11.222788,2.5370793 14.351986,1.5900099 16.975703,0.7959272 17.932249,0.78954348 118.6,0.89428676 L 220.2,1 l 3.12339,1.4913932 c 5.8347,2.7860152 10.00611,8.3054748 11.0562,14.6291338 0.32038,1.92934 0.41351,30.563049 0.33267,102.279473 L 234.6,219 l -0.90175,2.36771 c -1.81778,4.77291 -5.62211,9.16675 -9.74639,11.25668 -4.52302,2.29199 1.7241,2.16717 -106.35186,2.12496 -61.053124,-0.0238 -100.169998,-0.18566 -101.395934,-0.41944 z M 220.30603,232.0601 c 5.89429,-1.83451 10.70125,-6.96563 12.06351,-12.87701 0.27519,-1.19417 0.41413,-34.68414 0.42068,-101.39905 0.009,-88.228594 -0.0603,-99.885064 -0.60338,-101.970055 C 230.47366,9.2366428 224.98236,4.0483192 218.41614,2.8030607 215.28257,2.2087912 19.551113,2.2503003 16.719688,2.8458349 15.55386,3.0910441 13.61,3.7531164 12.4,4.3171068 9.8267312,5.5165272 5.6997644,9.4522516 4.4532644,11.895593 2.2806857,16.154199 2.4,10.011762 2.4,117.6 c 0,88.04219 0.070237,99.70158 0.6131636,101.78602 1.6461004,6.3198 6.4067576,11.18755 12.5868364,12.86997 1.396817,0.38025 24.25827,0.49606 102.06436,0.51701 96.46818,0.026 100.35437,-0.001 102.64167,-0.7129 z"
       id="path22"
       inkscape:connector-curvature="0" />
  </g>
</svg>
