<?xml version="1.0" encoding="UTF-8" standalone="no"?>
<!-- Created with Inkscape (http://www.inkscape.org/) -->

<svg
   xmlns:dc="http://purl.org/dc/elements/1.1/"
   xmlns:cc="http://creativecommons.org/ns#"
   xmlns:rdf="http://www.w3.org/1999/02/22-rdf-syntax-ns#"
   xmlns:svg="http://www.w3.org/2000/svg"
   xmlns="http://www.w3.org/2000/svg"
   xmlns:sodipodi="http://sodipodi.sourceforge.net/DTD/sodipodi-0.dtd"
   xmlns:inkscape="http://www.inkscape.org/namespaces/inkscape"
   version="1.1"
   id="svg2"
   width="600.52277"
   height="598.87946"
   viewBox="0 0 600.52277 598.87946"
   sodipodi:docname="xx-mangeretninger.svg"
   inkscape:version="0.92.2 (5c3e80d, 2017-08-06)">
  <metadata
     id="metadata8">
    <rdf:RDF>
      <cc:Work
         rdf:about="">
        <dc:format>image/svg+xml</dc:format>
        <dc:type
           rdf:resource="http://purl.org/dc/dcmitype/StillImage" />
        <dc:title />
      </cc:Work>
    </rdf:RDF>
  </metadata>
  <defs
     id="defs6" />
  <sodipodi:namedview
     pagecolor="#ffffff"
     bordercolor="#666666"
     borderopacity="1"
     objecttolerance="10"
     gridtolerance="10"
     guidetolerance="10"
     inkscape:pageopacity="0"
     inkscape:pageshadow="2"
     inkscape:window-width="1920"
     inkscape:window-height="1018"
     id="namedview4"
     showgrid="false"
     inkscape:zoom="1.03"
     inkscape:cx="235.42399"
     inkscape:cy="299.06593"
     inkscape:window-x="0"
     inkscape:window-y="28"
     inkscape:window-maximized="1"
     inkscape:current-layer="svg2" />
  <g
     id="g817"
     transform="translate(-2.6666668,-3.519791)">
    <path
       style="fill:#fcfdfd;stroke-width:1.33333337"
       d="M 0,303.33334 V 0 H 303.33334 606.66669 V 303.33334 606.66669 H 303.33334 0 Z"
       id="path821"
       inkscape:connector-curvature="0" />
    <path
       style="fill:#0065b2;stroke-width:1.33333337"
       d="M 268.66668,601.11501 C 154.19507,588.20592 54.286422,507.62343 18.268637,399.15352 7.1392003,365.63651 2.6666668,338.32472 2.6666668,303.87917 2.6666668,255.88466 11.9369,214.60429 31.889996,173.74759 54.354753,127.74793 82.858302,93.097429 123.33334,62.58398 162.52983,33.034401 208.00486,14.370693 261.60517,5.8349218 281.14541,2.7231652 323.54032,2.7535045 344.66668,5.8943636 444.89138,20.794787 527.92421,80.855352 572.54272,170.72511 c 21.36949,43.04203 30.71533,83.48202 30.64632,132.60823 -0.0425,30.24746 -2.10252,46.9865 -9.18902,74.66667 -30.46364,118.99234 -132.55923,208.05896 -255.33334,222.74887 -17.00005,2.03405 -53.51599,2.22505 -70,0.36613 z m 62.76843,-2.53229 c 58.51358,-5.69392 117.42403,-30.15466 161.83583,-67.19731 23.76223,-19.81942 48.42973,-48.53314 64.92888,-75.57918 39.03054,-63.98039 51.69754,-143.34136 34.9774,-219.13955 -6.28121,-28.47495 -21.04445,-64.24027 -37.15025,-90.00001 C 511.90654,76.100175 440.74652,27.184453 359.33335,11.458573 321.52763,4.1559686 275.4941,4.8930438 237.02013,13.417017 163.64439,29.673526 96.569646,76.126942 54.245157,140.00001 c -11.820877,17.83921 -27.117581,48.90698 -33.41694,67.87016 -42.70959,128.57014 4.792705,267.12474 117.358173,342.31012 40.53787,27.07628 90.77561,44.64999 139.81362,48.90832 12.35129,1.07256 39.89384,0.8118 53.4351,-0.50589 z M 275.33334,578.54448 C 120.84648,562.60098 9.5450456,424.38752 27.42746,270.69642 42.196171,143.76618 142.26662,43.930716 270.6317,28.063277 c 14.43476,-1.784308 49.43738,-1.800184 64.06995,-0.02905 52.70494,6.379393 101.42491,26.712259 141.96504,59.247902 13.53248,10.860544 33.1615,30.430291 43.51597,43.384551 31.03537,38.82771 52.18139,89.48953 58.42075,139.96503 2.05069,16.58976 1.71107,52.31203 -0.66225,69.6558 -14.28087,104.36194 -86.98539,191.82888 -186.96669,224.92966 -38.31316,12.68432 -77.78882,17.23379 -115.64113,13.32731 z m 45.2381,-31.30637 c 1.81013,-1.81013 2.09524,-7.45137 2.09524,-41.45721 0,-34.45679 0.34131,-41.03679 2.7388,-52.80148 7.11839,-34.93054 21.96157,-57.34339 45.64047,-68.91603 14.05409,-6.86868 22.008,-8.04083 54.64759,-8.05331 l 26.36017,-0.0107 -9.39721,13.66667 c -10.19658,14.82919 -12.5173,21.61539 -8.69804,25.43463 2.61029,2.61031 10.2708,2.92504 16.8426,0.692 6.82446,-2.31889 101.37569,-57.36908 102.19323,-59.49955 0.39028,-1.01704 -0.42378,-2.90569 -1.809,-4.19701 -2.22323,-2.07252 -89.12633,-52.35801 -100.11906,-57.93275 -5.91489,-2.99903 -13.11804,-2.77823 -16.39955,0.50328 -5.11226,5.11226 -2.90744,11.65192 9.16239,27.17612 4.49403,5.78021 8.17095,11.03021 8.17095,11.66667 0,0.63646 -9.27647,1.15721 -20.61438,1.15721 -38.09738,0 -63.90576,4.59789 -85.38563,15.21187 -6.6,3.26129 -14.55,8.11954 -17.66666,10.7961 l -5.66667,4.8665 v -99.51593 c 0,-79.2504 0.3394,-99.31488 1.66667,-98.52865 0.91666,0.543 5.9281,4.1172 11.13653,7.94268 11.52808,8.46712 16.69969,11.22742 21.03535,11.22742 6.20722,0 9.90433,-6.70972 8.26993,-15.00876 -0.46841,-2.37852 -14.19007,-26.82457 -30.49256,-54.32457 -24.79624,-41.827757 -30.12401,-50.000004 -32.59672,-50.000004 -2.47507,0 -7.54382,7.806871 -31.16486,48.000004 -15.51498,26.4 -29.02924,49.93073 -30.03169,52.29051 -2.25032,5.29724 -2.37008,13.96206 -0.22265,16.10949 2.0272,2.0272 10.99541,2.07628 14.82098,0.0811 1.60179,-0.83539 8.16235,-5.35088 14.57902,-10.03443 l 11.66666,-8.51553 v 53.36775 c 0,29.35232 -0.45661,53.36781 -1.0147,53.36781 -0.5581,0 -11.20147,-10.2 -23.65196,-22.66667 -12.4505,-12.46666 -23.47792,-22.66666 -24.50539,-22.66666 -2.605,0 -28.32975,25.52194 -27.86974,27.65002 0.20631,0.95447 17.47513,19.49848 38.37513,41.20891 20.9,21.71042 38.2086,40.02451 38.46356,40.69796 0.25496,0.67346 -3.7845,-1.52358 -8.97656,-4.88232 -11.63434,-7.52621 -24.2773,-12.98576 -40.45312,-17.46869 -10.6849,-2.96117 -16.8109,-3.61996 -45.03389,-4.84285 -17.96666,-0.7785 -32.8757,-1.58768 -33.13118,-1.7982 -0.25548,-0.21051 3.4653,-5.87623 8.26844,-12.59046 10.6688,-14.91383 12.6661,-20.04096 9.61881,-24.69173 -2.91581,-4.45008 -12.1428,-4.49356 -21.42273,-0.10094 -8.65052,4.09466 -95.396395,55.0877 -97.952389,57.58071 -1.714219,1.67199 -1.712775,2.14388 0.01187,3.86851 3.843496,3.84349 100.341169,59.32343 104.559059,60.11471 7.19761,1.35028 11.80124,0.21356 13.81931,-3.41227 2.84641,-5.11412 0.18137,-12.43893 -9.17127,-25.20701 -4.45795,-6.08592 -7.71419,-11.45403 -7.23608,-11.92915 0.47811,-0.47511 13.86684,-0.85776 29.75274,-0.85035 26.49116,0.012 29.7117,0.27119 38.88345,3.12468 28.84512,8.97426 46.53004,30.93652 54.7148,67.94835 2.29702,10.3872 2.5638,17.32374 2.58968,67.33447 0.0185,35.82724 0.52216,56.67608 1.4091,58.33334 1.25914,2.35272 2.94717,2.57901 19.2381,2.57901 14.45663,0 18.25691,-0.39907 19.95308,-2.09524 z"
       id="path819"
       inkscape:connector-curvature="0" />
  </g>
</svg>
